<svg xmlns="http://www.w3.org/2000/svg" viewBox="0 0 2342.94 2105.41"><defs><style>.cls-1{fill:#518cc6;}.cls-2{fill:#4ca149;}.cls-3{fill:#d04b39;}.cls-4{fill:#eaa540;}.cls-5{fill:#4463a6;}.cls-6{fill:#4462a4;}.cls-7{fill:#2c9a48;}.cls-8{fill:#eaa33b;}.cls-9{fill:#508dc7;}.cls-10{fill:#ce4b3a;}</style></defs><g id="Camada_2" data-name="Camada 2"><g id="Camada_1-2" data-name="Camada 1"><polygon class="cls-1" points="1662.28 1937.25 1761.46 2105.41 2132.26 1803.42 1662.28 1937.25"/><polygon class="cls-2" points="1051.05 1372.66 1334.53 960.02 1913.69 1320.06 1051.05 1372.66"/><polygon class="cls-1" points="1913.69 1320.06 1851.81 762.69 1334.53 960.02 1913.69 1320.06"/><polygon class="cls-3" points="1913.69 1320.06 1851.81 762.69 2342.95 1294.19 1913.69 1320.06"/><polygon class="cls-4" points="2234.66 1612.6 1785.49 1327.79 2342.95 1294.19 2234.66 1612.6"/><polygon class="cls-4" points="552.7 1184.84 58.01 766.26 342.62 788.58 552.7 1184.84"/><polygon class="cls-4" points="1334.53 960.02 703.94 874.93 1051.05 1372.66 1334.53 960.02"/><polygon class="cls-5" points="1785.49 1327.79 1370.23 1667.13 1051.05 1372.66 1785.49 1327.79"/><polygon class="cls-2" points="1370.23 1667.13 2234.66 1612.6 2132.26 1803.42 1370.23 1667.13"/><polygon class="cls-1" points="1051.05 1372.66 552.7 1184.84 703.94 874.93 1051.05 1372.66"/><polygon class="cls-5" points="2225.08 1011.17 2285.65 656.14 2077.22 656.14 2225.08 1011.17"/><polygon class="cls-5" points="552.7 1184.84 703.94 874.93 342.62 788.58 552.7 1184.84"/><polygon class="cls-1" points="2234.66 1612.6 1785.49 1327.79 1370.23 1667.13 2234.66 1612.6"/><polygon class="cls-3" points="1662.28 1937.25 1771.84 1738.96 2132.26 1803.42 1662.28 1937.25"/><polygon class="cls-5" points="1851.81 762.69 1678.5 656.14 1334.53 960.02 1851.81 762.69"/><polygon class="cls-2" points="2342.95 1294.19 1851.81 762.69 2077.22 656.14 2342.95 1294.19"/><polygon class="cls-1" points="1678.5 656.14 1334.53 960.02 1117.02 777.66 1678.5 656.14"/><polygon class="cls-3" points="1099.54 928.31 1117.02 777.66 1334.53 960.02 1099.54 928.31"/><polygon class="cls-2" points="247.43 1153.36 305.35 975.55 552.7 1184.84 247.43 1153.36"/><polygon class="cls-3" points="3.43 1153.36 305.35 975.55 247.43 1153.36 3.43 1153.36"/><polygon class="cls-1" points="305.35 975.55 3.43 1153.36 58.68 766.26 305.35 975.55"/><path class="cls-6" d="M138.09,335.82V511.57H0V13.5H339v121H138.09v80.4H312.78v121Z"/><path class="cls-7" d="M535.78,134.47v64.1H736.71V316.8H535.78v74.08H745V512H397.68V13.4H742.23V134.47Z"/><path class="cls-8" d="M952.11,261.26C952.11,344,1007.35,393,1078.46,393c57.31,0,93.22-10.08,140.86-31V495.18c-43.5,19.43-99.43,27.35-140.86,27.35-152.59,0-274.8-113-274.8-261.27C803.66,113.72,916.9,0,1073.63,0c48.33,0,101.5,9.36,145.69,31V164.1c-42.81-20.15-90.45-33.83-145.69-34.55C998.37,129.55,952.11,179.22,952.11,261.26Z"/><path class="cls-9" d="M1764.77,511.12H1614.25L1588,428.5H1429.89l-26.24,82.62H1255.2L1436.11,13.3h147.07ZM1509.29,155.94,1458.2,322.58h102.19Z"/><path class="cls-10" d="M2342,13.3V511.12H2206.65V318.38L2105.84,474.13h-59.38L1946.34,318.38V511.12H1811V13.3h130.5l135.33,244.43,136-244.43Z"/></g></g></svg>