<svg xmlns="http://www.w3.org/2000/svg" viewBox="0 0 379.27 244.44"><defs><style>.cls-1,.cls-4{fill:#004e7e;}.cls-1,.cls-2,.cls-3{fill-rule:evenodd;}.cls-2{fill:#f09520;}.cls-3{fill:#4d4d4f;}</style></defs><title>Ciga logo</title><g id="Camada_2" data-name="Camada 2"><g id="Camada_1-2" data-name="Camada 1"><path class="cls-1" d="M169.47,185.3c-.33,2.12-3.14,4.77-5.34,6.79-14.27,13-38.76,24.73-65.48,24.73-15.47,0-30.36-5.37-42.69-10.67-10-4.32-20.55-11.25-27.65-18.91-.71-.77-2.55-2.07-1.94-3.4,8.21-3.44,15.64-7.64,23.77-11.16,14.75,10.8,28.92,19.69,54.81,17.95,11.83-.79,21.69-4.51,30.56-9.21,3.17-1.68,5.9-4.67,8.25-4.86,2.54-.2,9.82,3.24,13.09,4.37C161.64,182.61,165.64,184.53,169.47,185.3Z"/><path class="cls-2" d="M170,0V69.85H99.62V54.33c10.51-1.13,23.12-.16,34.44-.49C122.15,43.29,93,42.12,74.39,49c-2.18.81-4.34,2.41-5.82,2.43-3.72,0-10.67-5.1-14.06-6.79-5.4-2.71-9.44-4.21-14.07-6.8C55,27.33,77.2,18.05,101.56,18.43c20.87.35,37.91,9,51.9,16.49.32-11.48-.65-24.25.48-34.92Z"/><path class="cls-3" d="M43.83,165.89c1,1.22,3.28,2.39,2.91,4.37A214,214,0,0,0,24,181.41C17,175.29,12.36,166.22,8.42,156.68c-6.32-15.3-11-35.35-6.79-57.24C3.45,90.06,8.2,79.07,12.3,70.82,18.83,57.7,26.31,48.39,37,40.26c9,4.31,17.47,9.06,26.68,13.1-20,13.17-39.33,33.18-37.35,68.88C27.36,140.2,35,155.08,43.83,165.89Z"/><rect class="cls-4" x="181.33" y="139.06" width="22.95" height="73.83"/><path class="cls-1" d="M272.15,169.1a20.27,20.27,0,0,0-.45-4.23c-1.67-6-6-10.11-12.38-10.11-8.46,0-15.1,7.55-15.1,21,0,11,5.43,19.62,15,19.62a12.55,12.55,0,0,0,12.23-9.21,21.19,21.19,0,0,0,.75-6.19V169.1Zm22.94,33.07c0,14.19-2.86,25.81-11.31,33.21-8,6.94-19,9.06-29.9,9.06-9.81,0-19.92-2-26.57-5.59l4.53-17.51a44.85,44.85,0,0,0,21.44,5.59c10.87,0,19.17-5.75,19.17-19.48v-4.68h-.3c-4.38,6-11.47,9.51-19.93,9.51-18.26,0-31.25-14.8-31.25-35.93,0-23.85,15.25-38.95,33.51-38.95,10.12,0,16.46,4.38,20.24,10.57H275l.76-8.91H295.7c-.3,4.83-.61,11-.61,22Z"/><path class="cls-1" d="M355.87,178c-12.08,0-21.45,2.87-21.45,11.63,0,5.89,3.93,8.75,9.06,8.75a12.68,12.68,0,0,0,11.93-8.45,16.6,16.6,0,0,0,.46-3.93v-8Zm22.19,17.06c0,6.94.3,13.74,1.21,17.82H358.58l-1.36-7.4h-.45c-4.83,5.88-12.38,9-21.14,9-14.94,0-23.85-10.87-23.85-22.64,0-19.17,17.21-28.23,43.33-28.23v-.91c0-4.07-2.12-9.66-13.43-9.66a41.57,41.57,0,0,0-20.39,5.59l-4.23-14.8c5.14-2.87,15.25-6.64,28.69-6.64,24.6,0,32.31,14.49,32.31,32Z"/><rect class="cls-4" x="181.33" y="124.58" width="22.95" height="10.18"/></g></g></svg>